#!OML:ASF E:\inclinewalkrobotboard\Project 1\Capture day 1\Session 1\subject1.ASF
:FULLY-SPECIFIED
:DEGREES
330
root 7.82134 22.5377 -9.35582 -170.805 3.35619 178.193
lowerback -3.36402 3.26217 -7.68239
upperback 3.21607 4.94824 -0.762333
thorax 4.67392 2.24919 3.83811
lowerneck -1.9407 1.61069 -7.8659
upperneck 26.4789 -3.90798 15.4238
head 8.85017 -2.3511 6.28361
rclavicle 6.99722e-014 -3.91606e-014
rhumerus -27.7201 -14.3313 -83.8752
rradius 34.8563
rwrist 4.27802
rhand -19.5078 -35.9481
rfingers 7.12502
rthumb 6.81501 -65.8184
lclavicle 6.99722e-014 -3.91606e-014
lhumerus -34.2302 19.2843 74.5354
lradius 15.1497
lwrist -31.6468
lhand -25.5852 -23.8337
lfingers 7.12502
lthumb 0.946341 6.14393
rfemur -2.89959 7.46892 19.4273
rtibia 17.1641
rfoot -20.4799 -1.8964
rtoes -23.3865
lfemur -32.0022 -8.13839 -19.5879
ltibia 25.5888
lfoot -12.2745 -0.303862
ltoes -15.2329
331
root 7.79333 22.5859 -9.48889 -170.573 3.23493 178.172
lowerback -3.52989 3.17498 -7.89477
upperback 3.17671 4.8489 -0.686985
thorax 4.71686 2.18779 4.03847
lowerneck -1.39607 1.61917 -7.76615
upperneck 26.263 -3.9104 15.3418
head 8.66952 -2.38161 6.22334
rclavicle -4.22417e-015 -5.56597e-015
rhumerus -28.0721 -15.0462 -83.337
rradius 33.7418
rwrist 5.5627
rhand -18.7993 -35.9187
rfingers 7.12502
rthumb 7.49886 -65.7658
lclavicle -4.22417e-015 -5.56597e-015
lhumerus -34.2015 15.9981 76.6115
lradius 16.944
lwrist -27.9107
lhand -25.8757 -24.417
lfingers 7.12502
lthumb 0.665784 5.56169
rfemur -3.1428 7.39765 19.1978
rtibia 17.9935
rfoot -19.3195 -1.80566
rtoes -23.7636
lfemur -31.2228 -8.53784 -19.7675
ltibia 24.7502
lfoot -12.5984 -0.280054
ltoes -15.1384
332
root 7.76749 22.6342 -9.60758 -170.321 3.10656 178.321
lowerback -3.56665 3.15123 -7.91857
upperback 3.12385 4.80787 -0.593954
thorax 4.67694 2.16518 4.14631
lowerneck -1.34199 1.61436 -7.89842
upperneck 26.227 -3.99484 15.621
head 8.66159 -2.42067 6.342
rclavicle -2.82771e-014 3.27995e-014
rhumerus -28.6211 -15.9598 -82.7234
rradius 32.9352
rwrist 6.71462
rhand -18.6456 -35.9007
rfingers 7.12502
rthumb 7.64725 -65.7425
lclavicle -2.82771e-014 3.27995e-014
lhumerus -33.8215 14.2944 77.9586
lradius 18.0904
lwrist -26.1263
lhand -26.106 -24.5319
lfingers 7.12502
lthumb 0.443391 5.44737
rfemur -3.60263 7.55798 19.2133
rtibia 19.0809
rfoot -18.0659 -1.7957
rtoes -23.2429
lfemur -30.6355 -8.73288 -19.704
ltibia 24.0811
lfoot -12.8645 -0.371727
ltoes -14.9342
333
root 7.73603 22.6771 -9.73465 -170.072 3.04737 178.675
lowerback -3.71324 3.03465 -7.75179
upperback 3.04454 4.62526 -0.358648
thorax 4.69061 2.07099 4.29571
lowerneck -1.49333 1.75171 -8.21705
upperneck 26.36 -3.8255 15.795
head 8.71441 -2.35407 6.48327
rclavicle 2.6985e-014 5.36719e-015
rhumerus -29.2346 -16.8624 -81.8924
rradius 31.9639
rwrist 7.95172
rhand -18.3888 -35.7641
rfingers 7.12502
rthumb 7.89508 -65.5967
lclavicle 2.6985e-014 5.36719e-015
lhumerus -32.31 14.7662 78.7048
lradius 17.7447
lwrist -26.188
lhand -26.4043 -24.2336
lfingers 7.12502
lthumb 0.155307 5.7461
rfemur -4.12777 7.52108 19.3742
rtibia 20.3168
rfoot -16.9639 -1.44807
rtoes -22.5062
lfemur -30.0226 -8.7913 -19.4615
ltibia 23.449
lfoot -13.0823 -0.241448
ltoes -17.241
334
root 7.70724 22.7152 -9.85498 -169.812 2.8337 178.937
lowerback -3.75228 3.01086 -7.59305
upperback 2.96008 4.57458 -0.318888
thorax 4.6371 2.05231 4.24543
lowerneck -1.72657 1.70163 -8.06185
upperneck 26.23 -3.94161 16.0911
head 8.73314 -2.35605 6.55081
rclavicle 4.87022e-015 -5.56597e-015
rhumerus -29.8996 -18.9398 -80.9557
rradius 30.7959
rwrist 9.14812
rhand -18.366 -35.2931
rfingers 7.12502
rthumb 7.91708 -65.1248
lclavicle 4.87022e-015 -5.56597e-015
lhumerus -32.5929 11.3027 80.2805
lradius 19.5286
lwrist -22.272
lhand -27.553 -26.103
lfingers 7.12502
lthumb -0.954181 3.87457
rfemur -4.83946 7.03515 19.4455
rtibia 21.8626
rfoot -15.9355 -1.02228
rtoes -22.7891
lfemur -29.4092 -8.94493 -19.36
ltibia 22.7627
lfoot -13.1652 -0.27718
ltoes -18.6151
335
root 7.67991 22.7534 -9.97313 -169.66 2.88438 179.217
lowerback -3.86821 3.02389 -7.49533
upperback 2.94235 4.58748 -0.248019
thorax 4.68331 2.05709 4.2729
lowerneck -1.73992 1.66638 -8.00706
upperneck 26.0932 -4.06392 16.3825
head 8.70885 -2.38963 6.63289
rclavicle 6.06293e-015 8.15017e-015
rhumerus -30.6282 -20.7313 -80.011
rradius 29.7042
rwrist 9.59022
rhand -18.9304 -35.0088
rfingers 7.12502
rthumb 7.37234 -64.8604
lclavicle 6.06293e-015 8.15017e-015
lhumerus -32.4962 9.35941 81.1434
lradius 21.1584
lwrist -21.7148
lhand -26.7433 -24.9287
lfingers 7.12502
lthumb -0.172207 5.05093
rfemur -5.68634 6.61053 19.5428
rtibia 23.7817
rfoot -14.8022 -0.623584
rtoes -24.1647
lfemur -28.5231 -8.9865 -19.2127
ltibia 21.8156
lfoot -13.3088 -0.209524
ltoes -18.7679
336
root 7.65599 22.7926 -10.0816 -169.629 3.07778 179.446
lowerback -3.80354 3.17726 -7.4415
upperback 2.99414 4.78902 -0.257703
thorax 4.68058 2.15911 4.24198
lowerneck -1.67708 1.52124 -7.81904
upperneck 25.8387 -4.36263 16.7277
head 8.6566 -2.49414 6.69175
rclavicle 3.58309e-014 -6.55989e-015
rhumerus -31.513 -23.008 -78.8187
rradius 28.6122
rwrist 9.88067
rhand -19.6754 -34.7996
rfingers 7.12502
rthumb 6.65319 -64.6751
lclavicle 3.58309e-014 -6.55989e-015
lhumerus -31.9334 7.5848 81.9986
lradius 22.2393
lwrist -20.9287
lhand -26.4433 -23.9385
lfingers 7.12502
lthumb 0.117607 6.04126
rfemur -6.69145 6.28635 19.6042
rtibia 26.0926
rfoot -13.4648 -0.380325
rtoes -25.3605
lfemur -27.6116 -8.84002 -19.0932
ltibia 20.9529
lfoot -13.4575 -0.136909
ltoes -18.5294
337
root 7.62973 22.8294 -10.1891 -169.688 3.2714 179.364
lowerback -3.67675 2.93286 -7.86573
upperback 2.94317 4.46204 -0.0845212
thorax 4.55379 1.98496 4.62864
lowerneck -1.02821 1.73143 -8.37355
upperneck 26.0674 -4.31191 17.0363
head 8.60723 -2.5783 6.91794
rclavicle -1.26725e-014 1.5704e-014
rhumerus -32.5578 -23.9585 -77.605
rradius 27.7452
rwrist 10.1176
rhand -20.1209 -36.1309
rfingers 7.12502
rthumb 6.22313 -66.0195
lclavicle -1.26725e-014 1.5704e-014
lhumerus -31.914 7.51891 82.4691
lradius 23.2199
lwrist -20.6552
lhand -26.1343 -23.8608
lfingers 7.12502
lthumb 0.416017 6.11856
rfemur -7.85661 5.7416 19.2618
rtibia 28.7345
rfoot -11.9106 0.0265496
rtoes -24.767
lfemur -26.6377 -8.75267 -19.3756
ltibia 20.1063
lfoot -13.5004 -0.134247
ltoes -17.7793
338
root 7.59929 22.8619 -10.3012 -169.758 3.24888 179.326
lowerback -3.62386 2.77411 -8.00838
upperback 2.96783 4.25469 -0.0465429
thorax 4.56627 1.87603 4.73413
lowerneck -1.34017 1.82631 -8.56526
upperneck 26.0101 -4.1234 17.2001
head 8.62029 -2.47017 7.02735
rclavicle 9.98893e-015 -3.57812e-015
rhumerus -33.8151 -25.7814 -76.1452
rradius 26.9202
rwrist 10.7439
rhand -19.9681 -36.4491
rfingers 7.12502
rthumb 6.37058 -66.3333
lclavicle 9.98893e-015 -3.57812e-015
lhumerus -31.5122 6.66765 82.9739
lradius 23.9802
lwrist -20.1596
lhand -26.171 -24.3439
lfingers 7.12502
lthumb 0.380624 5.63553
rfemur -9.12491 4.84265 18.9734
rtibia 31.5705
rfoot -10.163 0.569554
rtoes -23.0674
lfemur -25.6175 -8.77909 -19.6892
ltibia 19.2376
lfoot -13.4343 -0.375814
ltoes -16.245
